# xmcd
# 
# Track frame offsets:
#     150
#     21426
#     41925
#     70269
#     93225
#     113486
#     131816
#     150680
#     166388
#     182873
# 
# Disc length: 2753
# 
# Revision: 0
# Processed by: cddbd v1.5.2PL0 Copyright (c) Steve Scherf et al.
# Submitted via: fre:ac v1.0.27
# 
DISCID=870abf0a
DTITLE=Baci - Ailleurs
DYEAR=0
DGENRE=
TTITLE0=Ailleurs
TTITLE1=Jolie Maman
TTITLE2=Eva
TTITLE3=J'ai peur
TTITLE4=Sacré Coeur
TTITLE5=Père et mère
TTITLE6=Le chemin de la Paix
TTITLE7=Où que j'aille
TTITLE8=Je t'aime
TTITLE9=Le rêve
EXTD=
EXTT0=
EXTT1=
EXTT2=
EXTT3=
EXTT4=
EXTT5=
EXTT6=
EXTT7=
EXTT8=
EXTT9=
PLAYORDER=
